<svg width="14.000000" height="8.000000" viewBox="0 0 14 8" fill="none" xmlns="http://www.w3.org/2000/svg" xmlns:xlink="http://www.w3.org/1999/xlink">
	<desc>
			Created with Pixso.
	</desc>
	<defs/>
	<path id="icon/vk" d="M13.92 6.22C13.9 6.18 13.89 6.15 13.87 6.13C13.63 5.69 13.17 5.15 12.48 4.52L12.47 4.5L12.46 4.49L12.45 4.49L12.44 4.49C12.13 4.19 11.94 3.99 11.85 3.89C11.7 3.69 11.67 3.5 11.75 3.3C11.81 3.15 12.03 2.83 12.41 2.34C12.61 2.08 12.77 1.88 12.88 1.72C13.72 0.6 14.09 -0.11 13.98 -0.43L13.93 -0.5C13.9 -0.54 13.83 -0.58 13.71 -0.62C13.58 -0.66 13.43 -0.66 13.24 -0.64L11.14 -0.62C11.11 -0.64 11.06 -0.63 10.99 -0.62C10.93 -0.61 10.9 -0.6 10.9 -0.6L10.86 -0.58L10.83 -0.56C10.81 -0.54 10.78 -0.52 10.75 -0.48C10.73 -0.44 10.7 -0.4 10.68 -0.35C10.45 0.24 10.19 0.78 9.9 1.29C9.72 1.59 9.56 1.85 9.41 2.07C9.25 2.3 9.13 2.46 9.03 2.56C8.92 2.67 8.83 2.75 8.75 2.82C8.67 2.88 8.6 2.91 8.56 2.9C8.52 2.89 8.47 2.88 8.44 2.87C8.37 2.82 8.31 2.76 8.27 2.69C8.23 2.61 8.2 2.52 8.19 2.4C8.17 2.29 8.16 2.19 8.16 2.11C8.16 2.02 8.16 1.91 8.17 1.76C8.17 1.61 8.17 1.5 8.17 1.45C8.17 1.27 8.18 1.06 8.18 0.85C8.19 0.63 8.2 0.46 8.2 0.33C8.21 0.21 8.21 0.07 8.21 -0.07C8.21 -0.21 8.2 -0.32 8.18 -0.4C8.17 -0.48 8.14 -0.56 8.11 -0.63C8.07 -0.71 8.02 -0.77 7.96 -0.81C7.89 -0.85 7.81 -0.88 7.71 -0.91C7.46 -0.97 7.13 -1 6.73 -1C5.83 -1.01 5.25 -0.95 4.99 -0.83C4.89 -0.77 4.79 -0.7 4.71 -0.61C4.62 -0.5 4.61 -0.44 4.67 -0.43C4.97 -0.39 5.17 -0.29 5.29 -0.12L5.34 -0.03C5.37 0.03 5.41 0.14 5.44 0.3C5.47 0.46 5.5 0.64 5.51 0.84C5.53 1.19 5.53 1.5 5.51 1.75C5.48 2 5.46 2.2 5.44 2.34C5.41 2.48 5.38 2.6 5.34 2.68C5.29 2.77 5.27 2.82 5.25 2.84C5.24 2.86 5.22 2.88 5.21 2.88C5.15 2.91 5.09 2.92 5.02 2.92C4.95 2.92 4.87 2.88 4.77 2.81C4.67 2.75 4.57 2.65 4.47 2.53C4.36 2.41 4.24 2.25 4.11 2.03C3.98 1.82 3.85 1.57 3.71 1.27L3.59 1.06C3.52 0.93 3.42 0.73 3.29 0.47C3.16 0.21 3.05 -0.04 2.95 -0.29C2.92 -0.39 2.86 -0.47 2.78 -0.52L2.74 -0.54C2.72 -0.56 2.68 -0.58 2.63 -0.61C2.57 -0.63 2.52 -0.64 2.46 -0.65L0.46 -0.64C0.26 -0.64 0.12 -0.59 0.05 -0.5L0.02 -0.46C0 -0.43 0 -0.39 0 -0.34C0 -0.29 0.01 -0.22 0.04 -0.14C0.33 0.54 0.65 1.21 0.99 1.84C1.33 2.48 1.63 3 1.88 3.38C2.14 3.77 2.39 4.14 2.66 4.49C2.92 4.83 3.09 5.05 3.18 5.15C3.26 5.25 3.33 5.32 3.38 5.37L3.56 5.55C3.68 5.66 3.85 5.8 4.07 5.97C4.3 6.13 4.55 6.29 4.82 6.45C5.1 6.6 5.42 6.73 5.78 6.83C6.15 6.93 6.5 6.97 6.85 6.95L7.68 6.95C7.86 6.94 7.98 6.89 8.07 6.79L8.1 6.76C8.12 6.73 8.14 6.68 8.16 6.62C8.17 6.56 8.18 6.49 8.18 6.42C8.18 6.21 8.19 6.02 8.23 5.86C8.26 5.69 8.31 5.56 8.35 5.48C8.4 5.39 8.45 5.32 8.51 5.26C8.57 5.2 8.61 5.17 8.63 5.16C8.66 5.14 8.68 5.13 8.69 5.13C8.81 5.09 8.94 5.13 9.1 5.24C9.26 5.36 9.41 5.5 9.55 5.67C9.69 5.83 9.85 6.02 10.05 6.23C10.24 6.44 10.41 6.6 10.56 6.7L10.7 6.79C10.8 6.85 10.93 6.9 11.08 6.95C11.24 7 11.37 7.01 11.49 6.98L13.36 6.95C13.54 6.95 13.68 6.92 13.79 6.86C13.89 6.8 13.95 6.74 13.97 6.66C13.99 6.59 13.99 6.51 13.97 6.41C13.96 6.32 13.94 6.26 13.92 6.22Z" fill="#2D383F" fill-opacity="1.000000" fill-rule="evenodd"/>
</svg>
